<?xml version="1.0" standalone="no"?><!DOCTYPE svg PUBLIC "-//W3C//DTD SVG 1.1//EN" "http://www.w3.org/Graphics/SVG/1.1/DTD/svg11.dtd"><svg height="96" node-id="1" sillyvg="true" template-height="96" template-width="96" version="1.1" viewBox="0 0 96 96" width="96" xmlns="http://www.w3.org/2000/svg" xmlns:xlink="http://www.w3.org/1999/xlink"><defs node-id="45"></defs><g node-id="60"><g node-id="61"><g node-id="62"><g node-id="63"><path d="M 0.00 0.00 L 96.00 0.00 L 96.00 96.00 L 0.00 96.00 Z" fill="#ffffff" fill-opacity="0" fill-rule="evenodd" group-id="1,2,3,4" node-id="53" stroke="none" target-height="96" target-width="96" target-x="0" target-y="0"></path></g><path d="M 3.00 3.00 L 93.00 3.00 L 93.00 93.00 L 3.00 93.00 Z" fill="none" group-id="1,2,3" node-id="56" stroke="#dddddd" stroke-linecap="butt" stroke-opacity="0" stroke-width="6" target-height="90" target-width="90" target-x="3" target-y="3"></path><path d="M 6.00 6.00 L 90.00 6.00 L 90.00 90.00 L 6.00 90.00 Z" fill="none" group-id="1,2,3" node-id="58" stroke="#dddddd" stroke-linecap="butt" stroke-opacity="0" stroke-width="12" target-height="84" target-width="84" target-x="6" target-y="6"></path></g><path d="M 13.44 61.88 L 13.44 60.03 L 13.94 58.78 L 14.89 57.94 L 16.43 57.46 L 21.80 56.71 L 25.35 56.04 L 29.32 55.02 L 33.19 53.60 L 36.69 51.71 L 43.22 47.32 L 46.30 45.09 L 48.86 43.01 L 51.04 40.83 L 52.33 38.96 L 53.91 35.47 L 55.62 31.53 L 57.27 28.28 L 58.09 27.20 L 58.65 26.88 L 59.49 27.00 L 60.57 27.48 L 62.59 28.93 L 63.87 30.37 L 64.38 31.18 L 65.16 32.02 L 66.18 32.80 L 67.95 33.80 L 71.45 36.01 L 73.04 36.92 L 74.54 37.29 L 77.31 37.56 L 78.29 37.90 L 78.64 38.31 L 81.38 49.11 L 82.02 50.72 L 82.55 53.20 L 82.89 56.84 L 83.12 63.24 L 83.41 63.66 L 83.34 63.89 L 82.89 64.06 L 79.50 64.23 L 72.35 64.48 L 63.88 64.77 L 56.53 65.04 L 48.68 65.62 L 40.56 66.20 L 36.26 66.26 L 31.43 66.04 L 24.42 65.26 L 19.79 64.43 L 14.58 63.24 L 13.83 62.98 L 13.48 62.55 L 13.44 61.88 Z" fill="#e0e3ee" fill-rule="evenodd" group-id="1,2" id="路径-4" node-id="13" stroke="none" target-height="39.380005" target-width="69.97" target-x="13.44" target-y="26.88"></path><path d="M 63.87 30.37 L 64.98 31.86 L 64.60 33.19 L 59.02 39.40 L 57.39 41.56 L 56.73 42.33 L 55.50 43.28 L 52.52 45.19 L 51.02 46.24 L 49.83 47.27 L 48.80 48.14 L 46.94 49.41 L 42.57 52.01 L 38.48 54.20 L 36.40 55.12 L 35.86 54.97 L 35.15 54.54 L 34.51 53.96 L 34.09 53.38 L 34.03 53.21 L 36.69 51.71 L 43.22 47.32 L 46.30 45.09 L 48.86 43.01 L 51.04 40.83 L 52.33 38.96 L 53.91 35.47 L 55.62 31.53 L 57.27 28.28 L 58.09 27.20 L 58.65 26.88 L 59.49 27.00 L 60.57 27.48 L 62.59 28.93 L 63.87 30.37 Z" fill="#dce8fa" fill-rule="evenodd" group-id="1,2" id="形状结合" node-id="14" stroke="none" target-height="28.24" target-width="30.950005" target-x="34.03" target-y="26.88"></path><path d="M 60.75 27.58 L 60.77 27.65 L 60.66 27.90 L 59.54 28.21 L 58.77 28.70 L 58.07 29.54 L 57.58 30.46 L 56.90 31.77 L 56.48 32.51 L 56.23 33.07 L 55.85 33.45 L 54.87 33.24 L 55.42 31.99 L 57.18 28.44 L 58.06 27.23 L 58.65 26.88 L 59.57 27.02 L 60.75 27.58 Z" fill="#43abf4" fill-rule="evenodd" group-id="1,2" id="路径" node-id="15" stroke="none" target-height="6.5700016" target-width="5.9000015" target-x="54.87" target-y="26.88"></path><path d="M 57.69 28.11 L 55.97 31.74 L 55.72 32.24 L 55.23 32.41 L 55.42 31.99 L 56.62 29.44 L 57.74 27.60 L 57.69 28.11 Z" fill="#ab0000" fill-rule="evenodd" group-id="1,2" id="路径" node-id="16" stroke="none" target-height="4.8099995" target-width="2.5100021" target-x="55.23" target-y="27.6"></path><path d="M 35.32 53.38 L 36.42 52.77 L 38.20 51.58 L 39.41 50.76 L 42.59 48.67 L 44.15 48.93 L 44.86 48.87 L 45.23 48.36 L 45.34 46.40 L 47.06 44.29 L 48.18 43.31 L 49.90 41.98 L 50.63 41.58 L 50.80 41.65 L 51.00 41.90 L 51.66 42.20 L 53.39 42.60 L 54.82 42.78 L 55.24 42.53 L 55.80 41.61 L 56.64 39.31 L 56.91 37.78 L 56.38 37.24 L 53.87 35.77 L 54.86 35.06 L 55.22 34.95 L 55.97 35.11 L 57.08 35.43 L 57.71 35.77 L 58.14 36.83 L 58.66 38.85 L 58.72 39.97 L 58.51 40.96 L 58.01 41.93 L 57.21 43.06 L 55.36 45.03 L 54.43 45.71 L 53.87 45.92 L 52.30 45.85 L 50.30 45.91 L 49.42 46.15 L 48.87 46.57 L 47.94 48.15 L 46.76 49.96 L 46.03 50.66 L 45.26 51.01 L 42.64 51.99 L 39.29 53.48 L 36.99 54.39 L 36.16 54.33 L 35.58 53.98 L 35.25 53.52 L 35.32 53.38 Z" fill="#000000" fill-rule="evenodd" group-id="1,2" id="路径-24" node-id="17" stroke="none" target-height="19.439999" target-width="23.470001" target-x="35.25" target-y="34.95"></path><path d="M 80.27 45.40 L 80.25 45.75 L 80.02 45.96 L 75.49 47.75 L 71.85 48.78 L 69.44 49.17 L 67.91 49.18 L 66.99 48.94 L 64.11 47.59 L 60.28 45.85 L 56.79 44.07 L 55.48 43.20 L 54.97 42.64 L 54.88 41.81 L 55.18 39.87 L 55.77 37.74 L 56.67 35.33 L 57.81 33.05 L 59.05 31.28 L 60.05 30.38 L 60.98 29.98 L 61.93 29.99 L 64.68 30.87 L 66.49 31.61 L 69.10 33.06 L 71.51 34.75 L 72.95 35.50 L 74.58 35.90 L 76.30 36.09 L 77.66 36.42 L 78.39 36.81 L 78.72 37.30 L 78.75 37.97 L 78.70 39.06 L 79.09 41.30 L 80.27 45.40 Z" fill="#262327" fill-rule="evenodd" group-id="1,2" id="路径-11" node-id="18" stroke="none" target-height="19.2" target-width="25.389996" target-x="54.88" target-y="29.98"></path><path d="M 61.93 29.99 L 64.68 30.87 L 66.49 31.61 L 69.10 33.06 L 71.51 34.75 L 72.95 35.50 L 74.58 35.90 L 76.30 36.09 L 77.66 36.42 L 78.39 36.81 L 78.72 37.30 L 78.75 37.97 L 78.68 38.45 L 77.86 37.26 L 76.70 36.91 L 74.63 36.58 L 72.74 36.27 L 70.85 35.41 L 68.58 33.95 L 66.76 32.63 L 65.06 31.65 L 62.89 30.63 L 61.24 29.93 L 61.93 29.99 Z" fill="#808080" fill-rule="evenodd" group-id="1,2" id="形状结合" node-id="19" stroke="none" target-height="8.52" target-width="17.509998" target-x="61.24" target-y="29.93"></path><path d="M 63.53 31.80 L 62.81 33.28 L 61.09 37.22 L 60.10 40.07 L 59.64 42.08 L 59.54 42.83 L 59.25 45.53 L 58.99 46.63 L 58.57 47.41 L 57.89 47.94 L 56.74 48.22 L 54.52 48.27 L 53.03 48.50 L 52.34 48.88 L 51.39 49.69 L 48.86 51.90 L 46.94 53.08 L 45.23 53.72 L 42.97 54.48 L 40.89 55.28 L 40.56 55.76 L 40.78 57.06 L 42.25 60.10 L 46.18 66.20 L 41.00 66.62 L 34.90 66.69 L 27.76 66.35 L 22.30 65.57 L 18.65 64.85 L 14.45 63.88 L 13.70 63.62 L 13.35 63.18 L 13.31 62.51 L 13.31 60.67 L 13.81 59.42 L 14.76 58.58 L 16.30 58.10 L 16.93 58.01 L 16.81 58.22 L 17.88 58.47 L 25.40 59.23 L 28.88 59.61 L 31.05 59.93 L 31.83 60.29 L 32.58 60.90 L 34.02 62.03 L 34.78 62.16 L 35.74 61.73 L 36.37 60.91 L 36.37 60.15 L 36.00 59.37 L 35.44 58.55 L 34.91 57.75 L 34.66 57.04 L 34.62 56.57 L 34.68 55.86 L 35.09 55.15 L 35.88 54.42 L 37.71 53.08 L 42.17 50.41 L 44.06 49.35 L 45.27 48.52 L 47.12 46.78 L 49.31 44.70 L 50.33 43.88 L 50.90 43.61 L 52.27 43.74 L 53.88 43.75 L 54.51 43.43 L 54.92 42.65 L 55.54 39.94 L 56.53 36.13 L 57.77 32.61 L 58.51 31.31 L 59.13 30.80 L 60.34 30.63 L 61.77 30.92 L 63.53 31.80 Z" fill="#780210" fill-rule="evenodd" group-id="1,2" id="路径" node-id="20" stroke="none" target-height="36.060005" target-width="50.219997" target-x="13.31" target-y="30.63"></path><path d="M 63.66 31.16 L 62.94 32.64 L 61.22 36.58 L 60.23 39.43 L 59.77 41.45 L 59.67 42.19 L 59.38 44.90 L 59.12 45.99 L 58.70 46.78 L 58.02 47.31 L 56.87 47.58 L 54.65 47.63 L 53.16 47.87 L 52.47 48.24 L 51.52 49.05 L 48.99 51.26 L 47.07 52.44 L 45.36 53.08 L 43.10 53.85 L 41.02 54.65 L 40.69 55.12 L 40.90 56.42 L 42.38 59.46 L 46.31 65.56 L 41.13 65.98 L 35.03 66.05 L 27.89 65.71 L 26.40 65.53 L 21.75 64.81 L 18.56 64.17 L 14.71 63.26 L 14.58 63.24 L 14.04 63.11 L 13.52 62.79 L 13.28 62.44 L 13.16 61.99 L 13.29 60.09 L 13.88 58.80 L 14.88 57.94 L 16.43 57.46 L 17.30 57.35 L 17.30 57.35 L 17.18 57.63 L 18.17 58.06 L 20.98 58.46 L 24.94 58.76 L 28.77 59.03 L 31.18 59.29 L 31.96 59.65 L 32.71 60.27 L 34.15 61.39 L 34.91 61.52 L 35.87 61.09 L 36.50 60.27 L 36.50 59.52 L 36.13 58.73 L 35.57 57.92 L 35.04 57.11 L 34.79 56.41 L 34.75 55.93 L 34.81 55.23 L 35.22 54.51 L 36.01 53.78 L 37.84 52.44 L 42.30 49.77 L 44.19 48.71 L 45.40 47.89 L 47.25 46.14 L 49.44 44.06 L 50.46 43.25 L 51.03 42.98 L 52.40 43.10 L 54.01 43.12 L 54.64 42.79 L 55.05 42.02 L 55.67 39.30 L 56.66 35.50 L 57.90 31.97 L 58.64 30.67 L 59.26 30.17 L 60.47 29.99 L 61.90 30.28 L 63.66 31.16 Z" fill="#a02434" fill-rule="evenodd" group-id="1,2" id="路径" node-id="21" stroke="none" target-height="36.060005" target-width="50.5" target-x="13.16" target-y="29.99"></path><path d="M 55.38 40.48 L 54.72 39.86 L 53.49 38.61 L 53.01 37.97 L 52.93 37.66 L 52.91 37.57 L 52.64 37.75 L 51.92 38.48 L 51.54 39.07 L 52.30 39.95 L 53.80 41.34 L 54.92 42.13 L 55.15 42.05 L 55.30 41.75 L 55.39 40.93 L 55.38 40.48 Z" fill="#000000" fill-rule="evenodd" group-id="1,2" id="路径-20" node-id="22" stroke="none" target-height="4.5600014" target-width="3.8499985" target-x="51.54" target-y="37.57"></path><path d="M 42.49 66.65 L 39.38 61.87 L 37.09 59.10 L 35.43 57.72 L 33.62 56.50 L 33.04 55.79 L 33.03 55.36 L 33.39 54.77 L 34.42 53.91 L 36.70 52.30 L 39.54 50.38 L 42.00 48.83 L 42.92 48.36 L 43.13 48.34 L 43.47 50.18 L 44.04 53.61 L 44.76 56.54 L 46.03 59.15 L 49.83 66.07 L 42.49 66.65 Z" fill="#780210" fill-rule="evenodd" group-id="1,2" id="路径-6" node-id="23" stroke="none" target-height="18.310001" target-width="16.800003" target-x="33.03" target-y="48.34"></path><path d="M 42.95 66.35 L 39.84 61.56 L 37.55 58.80 L 35.89 57.42 L 34.08 56.19 L 33.51 55.49 L 33.49 55.05 L 33.85 54.47 L 34.88 53.61 L 37.16 51.99 L 40.00 50.07 L 42.46 48.53 L 43.39 48.05 L 43.59 48.03 L 43.93 49.87 L 44.50 53.31 L 45.23 56.23 L 46.49 58.85 L 50.29 65.77 L 42.95 66.35 Z" fill="#ae293d" fill-rule="evenodd" group-id="1,2" id="路径-6" node-id="24" stroke="none" target-height="18.32" target-width="16.8" target-x="33.49" target-y="48.03"></path><path d="M 80.24 43.91 L 80.13 42.89 L 79.75 41.99 L 77.77 40.89 L 73.69 38.81 L 69.33 36.61 L 66.50 35.18 L 63.60 33.94 L 60.12 32.67 L 58.05 32.07 L 57.72 32.21 L 57.26 32.73 L 56.40 34.27 L 55.70 35.97 L 55.23 37.39 L 55.29 38.08 L 55.79 39.01 L 56.68 39.96 L 58.55 41.44 L 63.15 44.69 L 67.27 47.53 L 69.26 48.81 L 70.57 48.84 L 71.86 48.66 L 74.05 48.13 L 76.54 47.31 L 80.11 45.84 L 80.28 45.01 L 80.24 43.91 Z" fill="#780210" fill-rule="evenodd" group-id="1,2" id="路径-7" node-id="25" stroke="none" target-height="16.77" target-width="25.05" target-x="55.23" target-y="32.07"></path><path d="M 80.40 43.48 L 80.29 42.45 L 79.91 41.55 L 77.93 40.46 L 73.85 38.37 L 69.49 36.17 L 66.66 34.75 L 63.76 33.50 L 60.28 32.23 L 58.21 31.63 L 57.88 31.77 L 57.42 32.29 L 56.56 33.83 L 55.86 35.53 L 55.39 36.96 L 55.45 37.64 L 55.95 38.57 L 56.84 39.52 L 58.71 41.00 L 63.31 44.25 L 67.43 47.09 L 69.42 48.37 L 70.73 48.40 L 72.02 48.22 L 74.22 47.69 L 76.70 46.87 L 80.27 45.40 L 80.44 44.57 L 80.40 43.48 Z" fill="#a02434" fill-rule="evenodd" group-id="1,2" id="路径-7" node-id="26" stroke="none" target-height="16.770002" target-width="25.050003" target-x="55.39" target-y="31.63"></path><path d="M 66.85 63.99 L 70.06 55.31 L 70.62 53.95 L 72.44 53.05 L 76.20 51.45 L 79.94 49.93 L 81.72 49.25 L 81.91 49.41 L 82.29 50.14 L 82.58 51.03 L 82.71 52.00 L 83.02 54.40 L 83.42 56.78 L 83.53 58.76 L 83.48 61.35 L 83.33 62.54 L 83.12 63.24 L 81.17 63.82 L 79.75 63.99 L 66.85 63.99 Z" fill="#a02434" fill-rule="evenodd" group-id="1,2" id="路径-8" node-id="27" stroke="none" target-height="14.740002" target-width="16.68" target-x="66.85" target-y="49.25"></path><path d="M 81.12 47.27 L 72.04 50.69 L 65.91 52.59 L 61.92 53.74 L 60.14 54.15 L 58.76 54.25 L 57.60 53.94 L 56.81 53.09 L 56.43 51.76 L 56.45 49.25 L 54.89 50.38 L 53.64 51.67 L 52.72 53.13 L 52.28 54.58 L 52.36 56.02 L 53.07 57.41 L 53.87 58.06 L 55.00 58.40 L 56.59 58.40 L 59.13 57.91 L 62.53 56.83 L 70.29 53.77 L 81.72 49.25 L 81.12 47.27 Z" fill="#262327" fill-rule="evenodd" group-id="1,2" id="路径-9" node-id="28" stroke="none" target-height="11.130001" target-width="29.440002" target-x="52.28" target-y="47.27"></path><path d="M 36.26 54.77 L 35.74 55.08 L 35.29 55.10 L 34.82 54.90 L 34.14 54.38 L 33.24 53.57 L 33.12 53.34 L 33.20 53.12 L 33.94 52.20 L 34.45 51.72 L 34.69 51.66 L 35.36 52.41 L 36.21 53.75 L 36.40 54.39 L 36.26 54.77 Z" fill="#262327" fill-rule="evenodd" group-id="1,2" id="路径-12" node-id="29" stroke="none" target-height="3.4399986" target-width="3.2800026" target-x="33.12" target-y="51.66"></path><path d="M 39.96 53.38 L 39.55 53.68 L 39.07 53.81 L 38.59 53.73 L 38.04 53.38 L 36.94 52.77 L 35.62 52.29 L 34.99 52.04 L 35.55 51.50 L 36.40 51.01 L 37.61 51.51 L 39.35 52.54 L 39.94 53.10 L 39.96 53.38 Z" fill="#262327" fill-rule="evenodd" group-id="1,2" id="路径-13" node-id="30" stroke="none" target-height="2.800003" target-width="4.9699974" target-x="34.99" target-y="51.01"></path><path d="M 42.13 51.64 L 41.48 52.03 L 40.79 52.12 L 40.01 51.88 L 38.45 51.25 L 37.68 50.91 L 37.50 50.74 L 37.92 50.22 L 38.68 49.53 L 39.17 49.25 L 40.13 49.80 L 41.66 50.81 L 42.15 51.34 L 42.13 51.64 Z" fill="#262327" fill-rule="evenodd" group-id="1,2" id="路径-14" node-id="31" stroke="none" target-height="2.869999" target-width="4.6500015" target-x="37.5" target-y="49.25"></path><path d="M 42.34 48.01 L 42.36 47.19 L 42.58 46.72 L 45.40 44.67 L 46.09 44.31 L 46.91 44.32 L 47.41 44.48 L 47.08 44.64 L 46.37 44.87 L 45.66 45.67 L 44.93 47.05 L 44.72 47.76 L 44.71 48.20 L 44.64 48.50 L 44.22 48.69 L 43.05 48.63 L 42.55 48.38 L 42.34 48.01 Z" fill="#c9c7e4" fill-rule="evenodd" group-id="1,2" id="路径-16" node-id="32" stroke="none" target-height="4.3799973" target-width="5.0699997" target-x="42.34" target-y="44.31"></path><path d="M 41.91 47.25 L 41.13 47.74 L 40.37 48.43 L 39.94 48.96 L 40.01 49.03 L 40.67 48.98 L 41.92 48.99 L 42.97 49.24 L 43.91 49.90 L 45.10 50.59 L 45.67 50.75 L 46.09 50.68 L 46.37 50.20 L 46.19 49.37 L 45.67 48.57 L 44.99 48.03 L 43.28 47.41 L 42.40 47.24 L 41.91 47.25 Z" fill="#262327" fill-rule="evenodd" group-id="1,2" id="路径-15" node-id="33" stroke="none" target-height="3.5099983" target-width="6.4300003" target-x="39.94" target-y="47.24"></path><path d="M 49.40 48.03 L 48.88 48.34 L 48.14 48.26 L 46.53 47.42 L 45.26 46.38 L 46.25 44.97 L 46.74 44.76 L 47.78 45.50 L 49.07 46.88 L 49.45 47.60 L 49.40 48.03 Z" fill="#262327" fill-rule="evenodd" group-id="1,2" id="路径-17" node-id="34" stroke="none" target-height="3.5800018" target-width="4.1900024" target-x="45.26" target-y="44.76"></path><path d="M 52.72 46.17 L 52.25 46.30 L 51.46 46.10 L 50.13 45.36 L 49.10 44.90 L 47.75 44.47 L 47.07 44.11 L 47.46 43.54 L 48.26 42.82 L 48.92 42.50 L 49.81 42.83 L 51.19 43.51 L 52.24 44.29 L 52.88 45.34 L 52.92 45.80 L 52.72 46.17 Z" fill="#262327" fill-rule="evenodd" group-id="1,2" id="路径-18" node-id="35" stroke="none" target-height="3.7999992" target-width="5.8499985" target-x="47.07" target-y="42.5"></path><path d="M 57.82 44.76 L 57.39 45.04 L 56.64 45.01 L 55.78 44.70 L 54.76 44.14 L 52.57 43.01 L 51.45 42.63 L 50.63 42.48 L 49.59 42.58 L 49.35 42.60 L 49.28 42.48 L 49.68 41.74 L 50.54 40.71 L 51.00 40.34 L 51.27 40.28 L 52.55 40.76 L 54.67 41.65 L 56.46 42.57 L 57.58 43.48 L 57.93 44.16 L 57.82 44.76 Z" fill="#262327" fill-rule="evenodd" group-id="1,2" id="路径-19" node-id="36" stroke="none" target-height="4.760002" target-width="8.650002" target-x="49.28" target-y="40.28"></path><path d="M 59.21 37.71 L 59.10 37.04 L 58.45 36.42 L 56.88 35.84 L 55.65 35.71 L 54.73 35.81 L 53.46 36.31 L 52.23 37.34 L 51.31 38.48 L 51.33 38.99 L 51.72 39.85 L 53.09 38.52 L 54.22 37.99 L 55.94 37.75 L 57.36 37.99 L 58.59 38.28 L 59.00 38.14 L 59.21 37.71 Z" fill="#262327" fill-rule="evenodd" group-id="1,2" id="路径-21" node-id="37" stroke="none" target-height="4.1399994" target-width="7.8999977" target-x="51.31" target-y="35.71"></path><path d="M 83.13 62.74 L 83.87 69.19 L 83.80 69.99 L 83.44 70.66 L 82.87 71.16 L 82.11 71.41 L 81.96 71.42 L 59.95 72.01 L 43.57 71.94 L 31.75 71.38 L 23.55 70.50 L 18.12 69.44 L 14.76 68.30 L 12.83 67.16 L 11.88 66.05 L 11.79 65.47 L 11.88 64.56 L 12.57 62.15 L 13.00 61.45 L 13.28 61.42 L 13.99 61.75 L 17.20 62.80 L 21.18 63.75 L 27.39 64.64 L 31.79 64.94 L 37.06 64.93 L 43.32 64.54 L 55.74 63.54 L 69.00 62.93 L 83.13 62.74 Z" fill="#780210" fill-rule="evenodd" group-id="1,2" id="路径-3" node-id="38" stroke="none" target-height="10.590004" target-width="72.08" target-x="11.79" target-y="61.42"></path><path d="M 83.12 63.24 L 83.85 69.18 L 83.78 69.97 L 83.44 70.65 L 82.86 71.15 L 82.10 71.40 L 81.94 71.42 L 59.94 72.01 L 43.56 71.94 L 31.75 71.38 L 23.55 70.50 L 18.12 69.44 L 14.76 68.30 L 12.83 67.16 L 11.88 66.05 L 11.79 65.47 L 11.88 64.56 L 12.55 62.53 L 12.98 61.93 L 13.27 61.92 L 13.98 62.25 L 17.19 63.31 L 21.17 64.25 L 27.38 65.14 L 31.79 65.44 L 37.06 65.43 L 43.32 65.04 L 55.74 64.04 L 68.99 63.43 L 83.12 63.24 Z" fill="#e2e6ec" fill-rule="evenodd" group-id="1,2" id="路径-3" node-id="39" stroke="none" target-height="10.090004" target-width="72.06" target-x="11.79" target-y="61.92"></path><path d="M 12.54 62.56 L 12.50 62.54 L 15.47 63.77 L 19.19 64.83 L 23.80 65.67 L 29.46 66.24 L 34.19 66.40 L 38.97 66.27 L 40.82 66.15 L 42.90 65.99 L 42.90 65.99 L 48.76 65.49 L 55.97 64.96 L 63.13 64.66 L 73.91 64.41 L 77.47 64.34 L 83.25 64.31 L 83.30 64.71 L 81.50 64.70 L 63.14 65.06 L 56.86 65.31 L 50.67 65.73 L 43.70 66.33 L 38.99 66.67 L 34.19 66.80 L 29.44 66.64 L 24.02 66.11 L 19.55 65.32 L 15.88 64.34 L 12.92 63.18 L 12.39 62.92 L 12.54 62.56 Z" fill="#a4abb6" fill-rule="evenodd" group-id="1,2" id="路径" node-id="40" stroke="none" target-height="4.260002" target-width="70.91" target-x="12.39" target-y="62.54"></path><path d="M 11.93 64.38 L 13.00 65.32 L 14.39 66.22 L 15.92 66.96 L 17.53 67.51 L 21.58 68.48 L 24.84 69.04 L 30.11 69.68 L 36.21 70.16 L 45.05 70.52 L 57.02 70.62 L 69.62 70.36 L 81.54 69.68 L 82.67 69.50 L 83.99 69.08 L 83.84 69.13 L 83.85 69.18 L 83.78 69.97 L 83.44 70.65 L 82.86 71.15 L 82.10 71.40 L 81.94 71.42 L 59.94 72.01 L 43.56 71.94 L 31.75 71.38 L 23.55 70.50 L 18.12 69.44 L 14.76 68.30 L 12.83 67.16 L 11.88 66.05 L 11.79 65.47 L 11.88 64.56 Z" fill="#848fcc" fill-rule="evenodd" group-id="1,2" id="形状结合" node-id="41" stroke="none" target-height="7.630005" target-width="72.2" target-x="11.79" target-y="64.38"></path><path d="M 60.10 33.40 L 59.17 33.02 L 57.88 32.71 L 56.56 32.65 L 55.35 32.98 L 54.42 33.62 L 54.00 34.22 L 53.84 34.92 L 53.89 35.71 L 54.54 35.71 L 55.58 34.80 L 56.58 34.61 L 57.95 34.93 L 59.46 35.33 L 60.12 35.39 L 60.49 35.28 L 60.83 34.87 L 60.92 34.37 L 60.72 33.89 L 60.10 33.40 Z" fill="#262327" fill-rule="evenodd" group-id="1,2" id="路径-22" node-id="42" stroke="none" target-height="3.0599976" target-width="7.079998" target-x="53.84" target-y="32.65"></path><path d="M 63.90 37.91 L 65.67 39.12 L 66.41 38.81 L 66.72 39.45 L 67.37 38.81 L 68.19 39.60 L 69.17 39.30 L 70.10 39.36 L 71.02 39.80 L 71.76 40.50 L 72.10 41.29 L 72.10 42.23 L 73.05 42.67 L 72.69 43.31 L 73.41 43.48 L 73.29 44.36 L 74.67 45.38 L 73.99 45.26 L 73.33 45.07 L 72.92 45.13 L 72.51 45.22 L 71.87 45.07 L 71.54 45.22 L 71.04 44.87 L 70.69 45.22 L 69.62 44.69 L 69.06 44.52 L 66.85 43.07 L 66.64 42.65 L 66.33 42.13 L 66.33 41.88 L 65.87 41.48 L 65.87 41.15 L 65.73 40.78 L 65.87 40.48 L 65.56 40.21 L 65.40 39.84 L 65.01 39.45 L 63.90 37.91 Z" fill="#66232e" fill-rule="evenodd" group-id="1,2" id="形状结合" node-id="43" stroke="none" target-height="7.470001" target-width="10.769997" target-x="63.9" target-y="37.91"></path></g></g></svg>